<svg width="247" height="72" viewBox="0 0 247 72" fill="none" xmlns="http://www.w3.org/2000/svg">
<path opacity="0.979" fill-rule="evenodd" clip-rule="evenodd" d="M196.443 6.82072C205.339 6.63197 214.226 6.82106 223.105 7.38799C214.415 16.3619 205.622 25.2492 196.727 34.0499C196.443 24.9755 196.349 15.8991 196.443 6.82072Z" fill="white"/>
<path opacity="0.945" fill-rule="evenodd" clip-rule="evenodd" d="M84.1235 7.38789C91.6166 6.83485 93.8857 9.95486 90.9308 16.7479C86.0539 19.3179 82.8392 17.9943 81.2871 12.777C81.4335 10.5292 82.3785 8.73284 84.1235 7.38789Z" fill="white"/>
<path opacity="0.992" fill-rule="evenodd" clip-rule="evenodd" d="M241.258 18.7336C241.258 19.8681 241.258 21.0027 241.258 22.1372C239.566 29.3104 235.028 33.2813 227.644 34.05C227.455 24.9657 227.644 15.8893 228.211 6.8208C235.31 7.8727 239.66 11.8436 241.258 18.7336Z" fill="white"/>
<path opacity="0.976" fill-rule="evenodd" clip-rule="evenodd" d="M5.27222 9.08984C8.10859 9.08984 10.945 9.08984 13.7813 9.08984C13.6869 15.5217 13.7814 21.9509 14.065 28.3772C20.4186 22.5264 27.6986 21.1082 35.905 24.1226C43.3041 28.3196 47.0859 34.7487 47.2505 43.4099C46.1642 58.3048 38.2223 65.301 23.425 64.3991C19.7391 63.5499 16.6191 61.7539 14.065 59.01C13.7825 60.7016 13.688 62.4034 13.7813 64.1154C10.945 64.1154 8.10859 64.1154 5.27222 64.1154C5.27222 45.7736 5.27222 27.4317 5.27222 9.08984ZM23.9923 30.079C33.0354 29.9516 37.7627 34.3953 38.1741 43.4099C36.8564 55.3131 30.6164 59.284 19.4541 55.3227C13.219 49.4164 12.179 42.7037 16.3341 35.1844C18.3355 32.5376 20.8882 30.8358 23.9923 30.079Z" fill="white"/>
<path opacity="0.979" fill-rule="evenodd" clip-rule="evenodd" d="M101.708 9.08984C104.545 9.08984 107.381 9.08984 110.218 9.08984C110.123 19.4916 110.218 29.8916 110.501 40.2899C115.202 34.764 119.835 29.1859 124.399 23.5553C128.384 23.0839 132.355 23.1784 136.312 23.839C130.261 30.4572 124.211 37.0753 118.159 43.6936C124.295 50.4917 130.535 57.2044 136.879 63.8318C132.909 64.2102 128.938 64.2102 124.967 63.8318C120.145 58.2538 115.323 52.6754 110.501 47.0972C110.218 52.7668 110.123 58.4393 110.218 64.1154C107.381 64.1154 104.545 64.1154 101.708 64.1154C101.708 45.7736 101.708 27.4317 101.708 9.08984Z" fill="white"/>
<path opacity="0.992" fill-rule="evenodd" clip-rule="evenodd" d="M141.985 9.08984C144.822 9.08984 147.658 9.08984 150.494 9.08984C150.494 27.4317 150.494 45.7736 150.494 64.1154C147.658 64.1154 144.822 64.1154 141.985 64.1154C141.985 45.7736 141.985 27.4317 141.985 9.08984Z" fill="white"/>
<path opacity="0.951" fill-rule="evenodd" clip-rule="evenodd" d="M71.6427 22.7046C72.9662 22.7046 74.2902 22.7046 75.6137 22.7046C75.6137 25.73 75.6137 28.7555 75.6137 31.781C70.8111 30.7353 67.1238 32.248 64.5518 36.3192C63.7264 45.5447 63.4428 54.8102 63.7009 64.1156C60.6756 64.1156 57.6498 64.1156 54.6245 64.1156C54.6245 50.501 54.6245 36.8864 54.6245 23.2719C57.6498 23.2719 60.6756 23.2719 63.7009 23.2719C62.9572 27.9796 63.9028 28.6414 66.5373 25.2573C68.1392 24.0781 69.8411 23.2272 71.6427 22.7046Z" fill="white"/>
<path opacity="0.938" fill-rule="evenodd" clip-rule="evenodd" d="M82.4214 23.2717C85.4467 23.2717 88.4725 23.2717 91.4978 23.2717C91.4978 36.8863 91.4978 50.5009 91.4978 64.1155C88.4725 64.1155 85.4467 64.1155 82.4214 64.1155C82.4214 50.5009 82.4214 36.8863 82.4214 23.2717Z" fill="white"/>
<path opacity="0.986" fill-rule="evenodd" clip-rule="evenodd" d="M218 27.2425C223.137 26.9045 224.46 28.9845 221.971 33.4825C218.994 34.6414 217.103 33.6959 216.298 30.6461C216.572 29.3409 217.14 28.2064 218 27.2425Z" fill="white"/>
<path opacity="0.984" fill-rule="evenodd" clip-rule="evenodd" d="M241.258 49.9335C241.258 51.0681 241.258 52.2026 241.258 53.3372C239.579 60.4967 235.04 64.4676 227.644 65.2499C227.458 62.3886 227.647 59.5522 228.211 56.7408C231.121 54.4798 231.783 51.6434 230.196 48.2317C229.618 47.5582 228.956 46.9909 228.211 46.5299C227.647 43.7185 227.458 40.8821 227.644 38.0208C235.028 38.7894 239.566 42.7603 241.258 49.9335Z" fill="white"/>
<path opacity="0.999" fill-rule="evenodd" clip-rule="evenodd" d="M223.105 45.9627C218.999 48.2664 218.148 51.4809 220.552 55.6064C221.58 56.4443 222.62 57.2006 223.672 57.8755C223.115 60.03 222.925 62.2991 223.105 64.6827C214.407 64.6827 205.708 64.6827 197.01 64.6827C197.01 55.9846 197.01 47.2863 197.01 38.5881C205.708 38.5881 214.407 38.5881 223.105 38.5881C223.105 41.0463 223.105 43.5045 223.105 45.9627Z" fill="white"/>
<path opacity="0.753" fill-rule="evenodd" clip-rule="evenodd" d="M223.106 45.9626C223.106 43.5044 223.106 41.0462 223.106 38.588C214.408 38.588 205.709 38.588 197.011 38.588C197.011 47.2862 197.011 55.9844 197.011 64.6826C205.709 64.6826 214.408 64.6826 223.106 64.6826C222.926 62.2989 223.115 60.0298 223.673 57.8753C223.673 60.3333 223.673 62.7919 223.673 65.2499C214.597 65.2499 205.52 65.2499 196.444 65.2499C196.444 56.1735 196.444 47.0971 196.444 38.0208C205.52 38.0208 214.597 38.0208 223.673 38.0208C223.854 40.7796 223.665 43.4269 223.106 45.9626Z" fill="white"/>
</svg>
