<svg width="11" height="17" viewBox="0 0 11 17" fill="none" xmlns="http://www.w3.org/2000/svg">
<path d="M0.674598 1.71902C0.674598 1.27902 0.831131 0.902485 1.1442 0.589418C1.4578 0.275818 1.8346 0.119018 2.2746 0.119018L8.6746 0.119018C9.1146 0.119019 9.49113 0.275819 9.8042 0.589419C10.1178 0.902485 10.2746 1.27902 10.2746 1.71902L10.2746 14.519C10.2746 14.959 10.1178 15.3358 9.8042 15.6494C9.49113 15.9625 9.1146 16.119 8.6746 16.119L2.2746 16.119C1.8346 16.119 1.4578 15.9625 1.1442 15.6494C0.83113 15.3358 0.674597 14.959 0.674597 14.519L0.674598 1.71902ZM3.0746 4.91902C3.0746 5.14568 3.1514 5.33582 3.305 5.48942C3.45806 5.64249 3.64793 5.71902 3.8746 5.71902L4.6746 5.71902L4.6746 6.51902C4.6746 6.74568 4.7514 6.93582 4.905 7.08942C5.05806 7.24249 5.24793 7.31902 5.4746 7.31902C5.70126 7.31902 5.8914 7.24249 6.045 7.08942C6.19806 6.93582 6.2746 6.74568 6.2746 6.51902L6.2746 5.71902L7.0746 5.71902C7.30126 5.71902 7.4914 5.64249 7.645 5.48942C7.79806 5.33582 7.8746 5.14569 7.8746 4.91902C7.8746 4.69235 7.79806 4.50222 7.645 4.34862C7.4914 4.19555 7.30126 4.11902 7.0746 4.11902L6.2746 4.11902L6.2746 3.31902C6.2746 3.09235 6.19806 2.90222 6.045 2.74862C5.8914 2.59555 5.70126 2.51902 5.4746 2.51902C5.24793 2.51902 5.05806 2.59555 4.905 2.74862C4.7514 2.90222 4.6746 3.09235 4.6746 3.31902L4.6746 4.11902L3.8746 4.11902C3.64793 4.11902 3.45806 4.19555 3.305 4.34862C3.1514 4.50222 3.0746 4.69235 3.0746 4.91902ZM3.0746 10.119C3.0746 10.4524 3.1914 10.7356 3.425 10.9686C3.65806 11.2022 3.94126 11.319 4.2746 11.319C4.60793 11.319 4.89113 11.2022 5.1242 10.9686C5.3578 10.7356 5.4746 10.4524 5.4746 10.119C5.4746 9.78569 5.3578 9.50249 5.1242 9.26942C4.89113 9.03582 4.60793 8.91902 4.2746 8.91902C3.94126 8.91902 3.65806 9.03582 3.425 9.26942C3.1914 9.50248 3.0746 9.78569 3.0746 10.119ZM5.4746 12.519C5.4746 12.8524 5.5914 13.1356 5.825 13.3686C6.05806 13.6022 6.34126 13.719 6.6746 13.719C7.00793 13.719 7.29113 13.6022 7.5242 13.3686C7.7578 13.1356 7.8746 12.8524 7.8746 12.519C7.8746 12.1857 7.7578 11.9025 7.5242 11.6694C7.29113 11.4358 7.00793 11.319 6.6746 11.319C6.34126 11.319 6.05806 11.4358 5.825 11.6694C5.5914 11.9025 5.4746 12.1857 5.4746 12.519Z" fill="#2B788B"/>
</svg>
