<svg width="25" height="20" viewBox="0 0 25 20" fill="none" xmlns="http://www.w3.org/2000/svg">
<path d="M9.71385 13.7616C9.71385 14.8431 9.15045 16.6129 7.81689 16.6129C6.48333 16.6129 5.91993 14.8431 5.91993 13.7616C5.91993 12.68 6.48333 10.9102 7.81689 10.9102C9.15045 10.9102 9.71385 12.68 9.71385 13.7616ZM24.905 11.1483C24.905 12.799 24.7396 14.5481 24.0005 16.0644C22.0415 20.0283 16.6556 19.9351 12.7996 19.9351C8.88167 19.9351 3.17529 20.0748 1.13877 16.0644C0.38412 14.5637 0.0946655 12.799 0.0946655 11.1483C0.0946655 8.98004 0.813132 6.93081 2.23973 5.2697C1.97095 4.45208 1.84173 3.59306 1.84173 2.74439C1.84173 1.63181 2.095 1.07293 2.59638 0.0638428C4.93786 0.0638428 6.43681 0.529575 8.22006 1.92677C9.71902 1.56971 11.2593 1.40929 12.8048 1.40929C14.2004 1.40929 15.6063 1.55936 16.9605 1.88538C18.7179 0.503701 20.2169 0.0638428 22.5325 0.0638428C23.0391 1.07293 23.2872 1.63181 23.2872 2.74439C23.2872 3.59306 23.1528 4.43656 22.8892 5.23865C24.3106 6.91529 24.905 8.98004 24.905 11.1483ZM21.5815 13.7616C21.5815 11.4898 20.2014 9.48717 17.7824 9.48717C16.8055 9.48717 15.8699 9.66311 14.8878 9.79766C14.1177 9.91668 13.3475 9.96325 12.5567 9.96325C11.771 9.96325 11.0009 9.91668 10.2256 9.79766C9.25899 9.66311 8.3131 9.48717 7.33102 9.48717C4.91201 9.48717 3.53193 11.4898 3.53193 13.7616C3.53193 18.305 7.68767 19.0036 11.3058 19.0036H13.7972C17.4309 19.0036 21.5815 18.3102 21.5815 13.7616ZM17.312 10.9102C15.9785 10.9102 15.4151 12.68 15.4151 13.7616C15.4151 14.8431 15.9785 16.6129 17.312 16.6129C18.6456 16.6129 19.209 14.8431 19.209 13.7616C19.209 12.68 18.6456 10.9102 17.312 10.9102Z" fill="#BABABA"/>
</svg>
