<svg width="29" height="20" viewBox="0 0 29 20" fill="none" xmlns="http://www.w3.org/2000/svg">
<path d="M8.20839 11.4866H16.1449V19.1815H12.8737L12.4833 15.8917C12.1116 17.0689 11.4487 17.9424 10.4946 18.5124C9.54044 19.0824 8.37567 19.3674 7.00026 19.3674C5.74875 19.3674 4.63354 19.0886 3.65464 18.531C2.68813 17.9734 1.92608 17.1742 1.36848 16.1333C0.823265 15.0925 0.550659 13.8781 0.550659 12.4903C0.550659 10.2723 1.21359 8.51896 2.53944 7.23028C3.86529 5.9416 5.92842 5.29726 8.72882 5.29726C10.3273 5.29726 11.7337 5.55748 12.948 6.07791C14.1747 6.59833 15.2156 7.40376 16.0706 8.49418C15.513 8.77918 14.4226 9.34917 12.7993 10.2042L12.3346 10.4644C11.8514 9.98112 11.2876 9.62178 10.6433 9.38634C9.99891 9.13852 9.3174 9.01461 8.59871 9.01461C7.40916 9.01461 6.5232 9.33058 5.94081 9.96253C5.35843 10.5821 5.06724 11.3503 5.06724 12.2673C5.06724 13.2586 5.37701 14.0578 5.99657 14.665C6.62852 15.2721 7.58884 15.5757 8.87752 15.5757C9.43512 15.5757 9.97413 15.4952 10.4946 15.3341C11.0274 15.173 11.4735 14.8942 11.8328 14.4977H8.20839V11.4866Z" fill="#BABABA"/>
<path d="M28.4493 4.53615C26.5039 4.47419 24.6143 4.43702 22.7804 4.42463V14.1269H18.1337V4.42463C16.2874 4.43702 14.404 4.47419 12.4833 4.53615V0.632937H28.4493V4.53615Z" fill="#BABABA"/>
</svg>
