<svg width="202" height="293" viewBox="0 0 202 293" fill="none" xmlns="http://www.w3.org/2000/svg">
<path d="M57.1929 249.06L53.0215 237.525L144.752 203.931L148.923 215.467L57.1929 249.06Z" fill="#0F162A"/>
<path d="M57.1929 273.608L53.0215 262.072L144.752 228.484L148.923 240.02L57.1929 273.608Z" fill="#0F162A"/>
<path d="M71.4654 292.937L67.2939 281.401L130.48 258.265L134.652 269.8L71.4654 292.937Z" fill="#0F162A"/>
<path d="M156.323 102.528H144.125V156.071C148.662 152.687 152.76 148.751 156.323 144.353V102.528Z" fill="#F3B012"/>
<path d="M132.378 102.528H120.104V138.131H132.378V102.528Z" fill="#F8BB1C"/>
<path d="M108.357 102.528H96.083V138.131H108.357V102.528Z" fill="#F2C53D"/>
<path d="M84.319 102.528H72.0449V138.131H84.319V102.528Z" fill="#F1D270"/>
<path d="M100.934 0C45.2645 0 0 45.4344 0 101.28C0 136.842 18.9999 170.167 49.7055 188.739L60.5382 184.773V102.528H48.3169V173.055C25.7784 156.106 12.1803 129.478 12.1803 101.28C12.1803 52.2013 51.9962 12.3033 100.934 12.3033C149.691 12.3033 189.36 52.2013 189.36 101.28C189.322 118.094 184.549 134.557 175.587 148.784C166.625 163.011 153.837 174.425 138.688 181.72L52.7286 212.947L56.8707 224.495L143.111 193.162L143.638 192.946C178.82 176.289 201.54 140.305 201.54 101.28C201.54 45.4344 156.428 0 100.934 0Z" fill="#0F162A"/>
</svg>
