<svg width="27" height="18" viewBox="0 0 27 18" fill="none" xmlns="http://www.w3.org/2000/svg">
<path fill-rule="evenodd" clip-rule="evenodd" d="M23.2273 0.684661C24.3255 0.998441 25.1099 1.7829 25.4237 2.88113C26.0513 4.9207 26.0513 8.99985 26.0513 8.99985C26.0513 8.99985 26.0513 13.079 25.5806 15.1186C25.2668 16.2168 24.4823 17.0013 23.3841 17.315C21.3445 17.7857 13.5 17.7857 13.5 17.7857C13.5 17.7857 5.49861 17.7857 3.61592 17.315C2.51769 17.0013 1.73325 16.2168 1.41947 15.1186C0.948796 13.079 0.948792 8.99985 0.948792 8.99985C0.948792 8.99985 0.948787 4.9207 1.26257 2.88113C1.57635 1.7829 2.36082 0.998441 3.45905 0.684661C5.49862 0.213989 13.3431 0.213989 13.3431 0.213989C13.3431 0.213989 21.3446 0.213989 23.2273 0.684661ZM10.9898 5.92376C10.9898 5.61663 11.3216 5.42408 11.5882 5.57646L16.9714 8.65256C17.2401 8.80611 17.2401 9.19359 16.9714 9.34715L11.5882 12.4233C11.3216 12.5756 10.9898 12.3831 10.9898 12.076V5.92376Z" fill="#BABABA"/>
</svg>
